<svg width="32" height="32" viewBox="0 0 24 24" fill="none" xmlns="http://www.w3.org/2000/svg">
    <rect width="24" height="24" rx="6" fill="#6366f1" />
    <path
            d="M6 11H8M7 10V12M15 11H15.01M17 11H17.01M11 15C11 15 12 16 13 16C14 16 15 15 15 15M7 7C10.5 7 13.5 7 17 7C18.1046 7 19 7.89543 19 9V15C19 16.1046 18.1046 17 17 17H7C5.89543 17 5 16.1046 5 15V9C5 7.89543 5.89543 7 7 7Z"
            stroke="white"
            stroke-width="1.5"
            stroke-linecap="round"
            stroke-linejoin="round"
    />
</svg>